<?xml version="1.0" encoding="UTF-8" standalone="no"?>
<svg
   version="1.1"
   viewBox="-5 -10 110 110"
   id="svg2"
   sodipodi:docname="userIcon.svg"
   width="110"
   height="110"
   inkscape:version="1.3 (0e150ed, 2023-07-21)"
   xmlns:inkscape="http://www.inkscape.org/namespaces/inkscape"
   xmlns:sodipodi="http://sodipodi.sourceforge.net/DTD/sodipodi-0.dtd"
   xmlns="http://www.w3.org/2000/svg"
   xmlns:svg="http://www.w3.org/2000/svg">
  <defs
     id="defs2" />
  <sodipodi:namedview
     id="namedview2"
     pagecolor="#ffffff"
     bordercolor="#999999"
     borderopacity="1"
     inkscape:showpageshadow="2"
     inkscape:pageopacity="0"
     inkscape:pagecheckerboard="0"
     inkscape:deskcolor="#d1d1d1"
     inkscape:zoom="1.7481481"
     inkscape:cx="55.201271"
     inkscape:cy="67.5"
     inkscape:window-width="1712"
     inkscape:window-height="985"
     inkscape:window-x="0"
     inkscape:window-y="43"
     inkscape:window-maximized="1"
     inkscape:current-layer="svg2" />
  <path
     d="m 83.789,56.836 v 9.332 c 0,7.9219 -3.2383,15.121 -8.457,20.34 -5.2187,5.219 -12.418,8.457 -20.336,8.457 h -9.9883 c -7.9219,0 -15.121,-3.2383 -20.336,-8.457 -5.2188,-5.2188 -8.457,-12.418 -8.457,-20.34 v -9.332 c 0,-3.4297 1.3984,-6.543 3.6523,-8.7969 2.2539,-2.2539 5.3672,-3.6523 8.7969,-3.6523 h 42.684 c 3.4297,0 6.543,1.3984 8.7969,3.6523 2.2578,2.2578 3.6523,5.3672 3.6523,8.7969 z M 50,1.637 c -4.4492,0 -8.4766,1.8047 -11.395,4.7227 -2.9184,2.918 -4.7188,6.9453 -4.7188,11.395 0,4.4492 1.8047,8.4766 4.7188,11.395 2.918,2.918 6.9453,4.7188 11.395,4.7188 4.4497,0 8.4766,-1.8047 11.395,-4.7188 2.918,-2.918 4.7188,-6.9453 4.7188,-11.395 0,-4.4492 -1.8047,-8.4805 -4.7188,-11.395 C 58.477,3.4417 54.4497,1.637 50,1.637 Z M 35.359,3.1136 c 3.7461,-3.7461 8.9258,-6.0664 14.641,-6.0664 5.7188,0 10.895,2.3203 14.641,6.0664 3.7461,3.7461 6.0625,8.9219 6.0625,14.641 0,5.7191 -2.3164,10.895 -6.0625,14.641 -3.7461,3.7461 -8.9258,6.0664 -14.641,6.0664 -5.7188,0 -10.895,-2.3164 -14.641,-6.0664 -3.7461,-3.7461 -6.0625,-8.9219 -6.0625,-14.641 0,-5.7191 2.3164,-10.895 6.0625,-14.641 z m 43.84,63.059 v -9.332 c 0,-2.1641 -0.88281,-4.1289 -2.3086,-5.5508 -1.4258,-1.4258 -3.3906,-2.3086 -5.5508,-2.3086 h -42.684 c -2.1641,0 -4.1289,0.88281 -5.5508,2.3086 -1.4258,1.4219 -2.3086,3.3906 -2.3086,5.5508 v 9.332 c 0,6.6523 2.7227,12.707 7.1094,17.094 4.3906,4.3906 10.441,7.1133 17.094,7.1133 h 9.9883 c 6.6523,0 12.707,-2.7227 17.094,-7.1133 4.3906,-4.3906 7.1094,-10.441 7.1094,-17.094 z"
     id="path1" />
</svg>
