<?xml version="1.0" encoding="UTF-8" standalone="no"?>
<svg
   version="1.1"
   viewBox="-5 -10 88 88"
   id="svg2"
   sodipodi:docname="instagramLogo.svg"
   width="88"
   height="88"
   inkscape:version="1.3 (0e150ed, 2023-07-21)"
   xmlns:inkscape="http://www.inkscape.org/namespaces/inkscape"
   xmlns:sodipodi="http://sodipodi.sourceforge.net/DTD/sodipodi-0.dtd"
   xmlns="http://www.w3.org/2000/svg"
   xmlns:svg="http://www.w3.org/2000/svg">
  <defs
     id="defs2" />
  <sodipodi:namedview
     id="namedview2"
     pagecolor="#ffffff"
     bordercolor="#999999"
     borderopacity="1"
     inkscape:showpageshadow="2"
     inkscape:pageopacity="0"
     inkscape:pagecheckerboard="0"
     inkscape:deskcolor="#d1d1d1"
     inkscape:zoom="7.5025193"
     inkscape:cx="45.118178"
     inkscape:cy="47.783949"
     inkscape:window-width="1712"
     inkscape:window-height="984"
     inkscape:window-x="0"
     inkscape:window-y="43"
     inkscape:window-maximized="0"
     inkscape:current-layer="svg2" />
  <path
     d="m 64.132727,-9.75 h -50 C 3.7927271,-9.75 -4.6172729,-1.3398 -4.6172729,9 v 50 c 0,10.34 8.4102,18.75 18.7499999,18.75 h 50 c 10.34,0 18.75,-8.4102 18.75,-18.75 V 9 c 0,-10.34 -8.4102,-18.75 -18.75,-18.75 z m 12.5,68.75 c 0,6.8945 -5.6055,12.5 -12.5,12.5 h -50 C 7.2382271,71.5 1.6327271,65.8945 1.6327271,59 V 9 c 0,-6.8945 5.6055,-12.5 12.4999999,-12.5 h 50 c 6.8945,0 12.5,5.6055 12.5,12.5 z m -37.5,-50 c -13.785,0 -25,11.215 -25,25 0,13.785 11.215,25 25,25 13.785,0 25,-11.215 25,-25 0,-13.785 -11.215,-25 -25,-25 z m 0,43.75 c -10.34,0 -18.75,-8.4102 -18.75,-18.75 0,-10.3398 8.4102,-18.75 18.75,-18.75 10.3398,0 18.75,8.4102 18.75,18.75 0,10.3398 -8.4102,18.75 -18.75,18.75 z m 27.219,-45.969 c 0.5625,0.59375 0.90625,1.4062 0.90625,2.2188 0,0.8126 -0.34375,1.625 -0.90625,2.2188 -0.59375,0.5625 -1.4062,0.90625 -2.2188,0.90625 -0.8126,0 -1.625,-0.34375 -2.2188,-0.90625 -0.5625,-0.59375 -0.90625,-1.4062 -0.90625,-2.2188 0,-0.8126 0.34375,-1.625 0.90625,-2.2188 1.1562,-1.125 3.25,-1.1562 4.4375,0 z"
     id="path1" />
</svg>
